<?xml version="1.0" encoding="UTF-8" standalone="no"?>
<!-- Created with Inkscape (http://www.inkscape.org/) -->

<svg
   xmlns:dc="http://purl.org/dc/elements/1.1/"
   xmlns:cc="http://creativecommons.org/ns#"
   xmlns:rdf="http://www.w3.org/1999/02/22-rdf-syntax-ns#"
   xmlns:svg="http://www.w3.org/2000/svg"
   xmlns="http://www.w3.org/2000/svg"
   xmlns:sodipodi="http://sodipodi.sourceforge.net/DTD/sodipodi-0.dtd"
   xmlns:inkscape="http://www.inkscape.org/namespaces/inkscape"
   width="32"
   height="31.999998"
   viewBox="0 0 32.000001 31.999997"
   id="svg4178"
   version="1.1"
   inkscape:version="0.48.4 r9939"
   sodipodi:docname="openmandriva-cicciotta.svg">
  <defs
     id="defs4180" />
  <sodipodi:namedview
     id="base"
     pagecolor="#ffffff"
     bordercolor="#666666"
     borderopacity="1.0"
     inkscape:pageopacity="0.0"
     inkscape:pageshadow="2"
     inkscape:zoom="7.9195959"
     inkscape:cx="33.761393"
     inkscape:cy="21.012922"
     inkscape:document-units="px"
     inkscape:current-layer="layer1"
     showgrid="false"
     fit-margin-top="0"
     fit-margin-left="0"
     fit-margin-right="0"
     fit-margin-bottom="0"
     units="px"
     inkscape:window-width="1920"
     inkscape:window-height="1018"
     inkscape:window-x="-8"
     inkscape:window-y="-8"
     inkscape:window-maximized="1" />
  <metadata
     id="metadata4183">
    <rdf:RDF>
      <cc:Work
         rdf:about="">
        <dc:format>image/svg+xml</dc:format>
        <dc:type
           rdf:resource="http://purl.org/dc/dcmitype/StillImage" />
        <dc:title></dc:title>
      </cc:Work>
    </rdf:RDF>
  </metadata>
  <g
     inkscape:label="Layer 1"
     inkscape:groupmode="layer"
     id="layer1"
     transform="translate(-356.57143,-623.79078)">
    <g
       transform="matrix(1.8897639,0,0,1.8897638,403.45733,371.50446)"
       id="g4159">
      <rect
         y="133.50151"
         x="-24.810455"
         height="16.933332"
         width="16.933332"
         id="rect4157"
         style="opacity:0.6;fill:none" />
      <g
         transform="translate(-110.13775,-73.676285)"
         id="g6347"
         style="fill:#2080bb;fill-opacity:1">
        <path
           inkscape:connector-curvature="0"
           id="path6343"
           d="m 93.694327,207.94329 c -4.251207,0 -7.698297,3.4487 -7.698297,7.7019 0,4.2532 3.44709,7.70043 7.698297,7.70043 3.262517,0 6.050131,-2.03098 7.170673,-4.89787 -1.101791,1.32352 -2.760101,2.16588 -4.616327,2.16588 -3.317309,0 -6.006675,-2.68915 -6.006675,-6.00801 0,-3.31886 2.689366,-6.00948 6.006675,-6.00948 0.209338,0 0.416394,0.01 0.620209,0.0309 -0.968,-0.43906 -2.042533,-0.68373 -3.174555,-0.68373 z"
           style="fill:#2080bb;fill-opacity:1;stroke:none" />
        <path
           style="fill:#2080bb;fill-opacity:1;stroke:none"
           d="m 96.300227,209.31316 a 5.2916663,5.2916663 0 0 0 -5.291667,5.29166 5.2916663,5.2916663 0 0 0 5.291667,5.29167 5.2916663,5.2916663 0 0 0 5.291663,-5.29167 5.2916663,5.2916663 0 0 0 -5.291663,-5.29166 z m 0,1.5875 a 3.7041666,3.7041666 0 0 1 3.704163,3.70416 3.7041666,3.7041666 0 0 1 -3.704163,3.70417 3.7041666,3.7041666 0 0 1 -3.704167,-3.70417 3.7041666,3.7041666 0 0 1 3.704167,-3.70416 z"
           id="path6345"
           inkscape:connector-curvature="0" />
      </g>
    </g>
  </g>
</svg>
